<?xml version='1.0' encoding='iso-8859-1'?>
<svg version="1.1" xmlns="http://www.w3.org/2000/svg" viewBox="0 0 393.343 393.343" xmlns:xlink="http://www.w3.org/1999/xlink" enable-background="new 0 0 393.343 393.343">
  <path fill="#fff" d="m133.01,197.016v5.046c0,4.418-3.582,8-8,8-4.418,0-8-3.582-8-8v-5.046c0-4.418 3.582-8 8-8 4.418,0 8,3.582 8,8zm37.272-.319c0.696,1.831 0.696,3.853 0,5.684-8.071,21.238-25.842,34.962-45.272,34.962-19.429,0-37.2-13.723-45.274-34.961-0.696-1.831-0.696-3.854 0-5.686 8.074-21.239 25.845-34.964 45.274-34.964 19.43,0 37.2,13.725 45.272,34.965zm-16.139,2.842c-6.053-13.345-17.232-21.807-29.134-21.807-11.9,0-23.08,8.463-29.135,21.807 6.054,13.342 17.234,21.804 29.135,21.804 11.903,0 23.082-8.461 29.134-21.804zm-43.008,49.519c-15.905-5.16-30.197-17.213-40.243-33.939-2.275-3.788-7.189-5.015-10.977-2.739s-5.014,7.189-2.739,10.978c12.034,20.036 29.444,34.569 49.021,40.92 0.82,0.267 1.652,0.393 2.47,0.393 3.374,0 6.511-2.151 7.608-5.533 1.364-4.205-0.938-8.717-5.14-10.08zm222.293-36.679c-3.79-2.275-8.703-1.048-10.978,2.739-10.045,16.727-24.337,28.779-40.243,33.939-4.203,1.363-6.504,5.875-5.141,10.078 1.098,3.383 4.234,5.533 7.608,5.533 0.818,0 1.65-0.126 2.47-0.393 19.579-6.352 36.988-20.884 49.021-40.92 2.277-3.787 1.051-8.701-2.737-10.976zm-179.88-72.497c-4.181-1.439-8.729,0.79-10.164,4.969s0.79,8.729 4.969,10.164c8.52,2.925 16.502,7.765 23.726,14.385 1.536,1.407 3.472,2.102 5.403,2.102 2.164,0 4.322-0.873 5.9-2.595 2.985-3.258 2.764-8.318-0.493-11.303-8.856-8.117-18.728-14.079-29.341-17.722zm238.015,238.542c2.275,3.788 1.049,8.702-2.739,10.978-3.789,2.274-8.702,1.048-10.977-2.739-18.236-30.362-41.495-55.336-67.817-73.273-6.202,2.3-12.54,4.229-18.932,5.741 21.601,14.447 40.618,34.671 55.408,59.294 2.275,3.787 1.049,8.702-2.739,10.978-3.786,2.274-8.703,1.048-10.977-2.739-15.375-25.598-35.618-45.943-58.531-59.185-6.112,37.309-38.578,65.865-77.589,65.865s-71.477-28.558-77.589-65.865c-22.913,13.241-43.157,33.587-58.53,59.185-2.274,3.787-7.189,5.014-10.977,2.739-3.788-2.275-5.014-7.189-2.739-10.978 14.858-24.739 33.984-45.036 55.712-59.497-6.412-1.498-12.77-3.415-18.993-5.703-26.421,17.949-49.768,42.983-68.059,73.438-2.276,3.787-7.19,5.014-10.978,2.739-3.788-2.275-5.014-7.189-2.739-10.978 17.596-29.298 39.657-53.936 64.631-72.614-23.741-11.873-44.032-29.07-55.529-48.556-12.421-21.054-13.91-43.054-4.308-63.623l7.269-15.571-6.907-101.301c-3.083-45.215 4.298-71.529 21.344-76.096 4.859-1.302 9.926-0.68 15.144,1.817 0.264,0.106 0.524,0.229 0.78,0.366l83.855,44.924h135.526c14.103-7.497 27.072-14.422 40.043-21.349 13.473-7.194 26.947-14.389 41.694-22.226 0.056-0.03 0.112-0.059 0.169-0.087 6.277-3.821 12.35-4.996 18.136-3.446 17.047,4.567 24.428,30.881 21.345,76.096l-6.725,98.613 8.523,18.259c9.616,20.598 8.11,42.652-4.354,63.779-11.482,19.461-31.68,36.645-55.301,48.536 24.9,18.663 46.897,43.252 64.45,72.479zm-167.418-7.436c-9.702-0.14-19.35-2.1-27.474-5.88-8.125,3.781-17.771,5.741-27.474,5.881 8.299,4.067 17.625,6.354 27.473,6.354 9.849,0 19.176-2.286 27.475-6.355zm-27.474-58.521l17.485-16.983h-34.97l17.485,16.983zm115.063-17.062c24.382-10.537 45.786-27.287 56.9-46.126 9.8-16.611 11.024-33.057 3.637-48.881l-9.396-20.128c-0.572-1.226-0.825-2.578-0.732-3.928l6.865-100.672c3.131-45.922-5.813-58.559-9.523-59.553-3.704-0.989-17.773,5.478-38.02,46.813l-25.634,52.327c9.797-2.491 18.726-5.709 26.668-9.617 2.265-1.116 4.926-1.095 7.175,0.056 2.249,1.15 3.822,3.295 4.245,5.785 2.234,13.182 7.06,27.259 14.344,41.843 1.975,3.952 0.371,8.757-3.582,10.731-3.954,1.974-8.758,0.369-10.731-3.582-6.206-12.425-10.8-24.602-13.712-36.326-11.21,4.5-23.772,7.901-37.479,10.142-2.958,0.482-5.93-0.724-7.714-3.127-1.784-2.402-2.078-5.601-0.761-8.288l32.813-66.982c3.306-6.749 6.603-12.906 9.877-18.458-1.939,1.035-3.875,2.068-5.81,3.103-13.518,7.218-27.034,14.436-41.832,22.299-1.156,0.614-2.445,0.936-3.754,0.936h-139.529c-1.318,0-2.616-0.326-3.778-0.948l-47.317-25.35c3.268,5.542 6.556,11.684 9.855,18.418l32.813,66.982c1.317,2.688 1.023,5.886-0.761,8.288-1.785,2.402-4.761,3.607-7.714,3.127-13.707-2.24-26.269-5.642-37.479-10.142-2.913,11.724-7.507,23.9-13.714,36.326-1.975,3.952-6.78,5.558-10.732,3.581-3.953-1.974-5.556-6.779-3.582-10.731 7.286-14.584 12.112-28.662 14.345-41.842 0.422-2.49 1.996-4.635 4.245-5.785 2.249-1.15 4.909-1.172 7.175-0.056 7.943,3.908 16.872,7.126 26.669,9.617l-25.633-52.326c-20.25-41.336-34.317-47.81-38.022-46.813-3.71,0.994-12.653,13.631-9.522,59.553l7.048,103.359c0.092,1.35-0.16,2.702-0.732,3.928l-8.142,17.44c-7.374,15.795-6.166,32.188 3.591,48.725 11.131,18.866 32.653,35.631 57.176,46.139 13.915-8.655 28.572-15.542 43.731-20.46 4.203-1.365 8.715,0.938 10.078,5.141 1.364,4.203-0.938,8.715-5.141,10.078-9.811,3.184-19.403,7.27-28.697,12.194 7.807,2.105 15.712,3.527 23.502,4.145 4.649-2.07 9.378-3.889 14.176-5.445 4.205-1.365 8.715,0.938 10.078,5.141 1.364,4.203-0.938,8.715-5.141,10.078-3.428,1.112-6.816,2.375-10.164,3.785 0.914,11.075 4.722,21.34 10.665,30.039 12.14,6.294 30.777,6.694 43.745,1.203v-24.159l-24.097-23.405c-1.551-1.506-2.426-3.576-2.426-5.738v-10.374c0-4.418 3.582-8 8-8h53.045c4.418,0 8,3.582 8,8v10.375c0,2.162-0.875,4.232-2.426,5.738l-24.095,23.404v24.159c12.967,5.489 31.604,5.089 43.745-1.202 5.943-8.699 9.751-18.966 10.665-30.04-3.348-1.41-6.736-2.673-10.164-3.785-4.203-1.363-6.504-5.875-5.141-10.078 1.363-4.202 5.874-6.507 10.078-5.141 4.982,1.616 9.894,3.517 14.714,5.687 7.725-0.649 15.564-2.091 23.301-4.206-9.4-5.006-19.104-9.152-29.035-12.374-4.203-1.363-6.504-5.875-5.141-10.078 1.363-4.202 5.874-6.509 10.078-5.141 15.245,4.944 29.979,11.879 43.963,20.602zm-43.4-58.062c-19.43,0-37.201-13.723-45.274-34.961-0.696-1.831-0.696-3.854 0-5.686 8.074-21.239 25.845-34.964 45.274-34.964 19.43,0 37.2,13.725 45.272,34.965 0.696,1.831 0.696,3.854 0,5.684-8.072,21.238-25.842,34.962-45.272,34.962zm29.134-37.804c-6.053-13.345-17.232-21.807-29.134-21.807-11.901,0-23.081,8.463-29.135,21.807 6.054,13.342 17.234,21.804 29.135,21.804 11.902,0 23.081-8.46 29.134-21.804zm-29.134-10.523c-4.418,0-8,3.582-8,8v5.046c0,4.418 3.582,8 8,8s8-3.582 8-8v-5.046c0-4.418-3.582-8-8-8zm-18.377-44.166c-1.435-4.179-5.983-6.406-10.164-4.969-10.61,3.643-20.481,9.604-29.339,17.721-3.258,2.984-3.479,8.045-0.494,11.303 1.578,1.723 3.735,2.596 5.9,2.596 1.931,0 3.867-0.694 5.402-2.102 7.227-6.621 15.209-11.461 23.726-14.385 4.18-1.434 6.404-5.985 4.969-10.164z"/>
</svg>
