<?xml version='1.0' encoding='iso-8859-1'?>
<svg version="1.1" xmlns="http://www.w3.org/2000/svg" viewBox="0 0 393.481 393.481" xmlns:xlink="http://www.w3.org/1999/xlink" enable-background="new 0 0 393.481 393.481">
  <path fill="#fff" d="m393.481,198.383c0-0.33-0.002-0.66-0.006-0.989l.006-153.525c0-8.506 0-34.391-17.897-40.771-11.531-4.111-26.327,1.54-45.222,17.282-16.12,13.432-29.271,29.212-31.743,32.238-4.516,5.528-9.4,11.596-14.573,18.103l-11.307-9.258c-41.906-34.313-109.465-34.826-150.601-1.142l-12.45,10.194c-5.097-6.409-9.926-12.407-14.41-17.897-2.473-3.027-15.626-18.809-31.745-32.238-18.894-15.742-33.688-21.398-45.222-17.283-17.897,6.38-17.897,32.265-17.897,40.771v145.584c-0.275,2.631-0.414,5.287-0.414,7.966 0,24.539 11.58,47.534 32.605,64.75l34.523,28.269h-58.714c-4.418,0-8,3.582-8,8s3.582,8 8,8h78.254l15.616,12.787-97.924,57.558c-3.809,2.238-5.082,7.142-2.843,10.95 2.239,3.811 7.145,5.084 10.951,2.843l103.011-60.548 39.521,32.362c23.016,18.847 60.143,19.109 82.761,0.591l39.98-32.737 103.291,60.344c1.269,0.741 2.657,1.094 4.027,1.094 2.751,0 5.428-1.419 6.915-3.966 2.229-3.814 0.943-8.714-2.872-10.942l-98.154-57.344 15.865-12.991h78.254c4.418,0 8-3.582 8-8s-3.582-8-8-8h-58.714l35.917-29.41c20.127-16.481 31.211-38.729 31.211-62.645zm-82.472-135.644c20.066-24.563 48.647-48.323 59.201-44.572 4.553,1.623 7.271,11.231 7.271,25.701l-.004,107.088c-3.892-5.269-8.46-10.237-13.668-14.833v-67.025c0-4.418-3.582-8-8-8s-8,3.582-8,8v53.833l-15.512-12.701v-23.173c0-4.418-3.582-8-8-8s-8,3.582-8,8v10.072l-19.871-16.271c5.182-6.52 10.071-12.593 14.583-18.119zm-294.595-18.871c1.42109e-14-14.47 2.718-24.077 7.27-25.7 0.748-0.267 1.585-0.396 2.503-0.396 12.058,0 38.053,22.143 56.699,44.967 4.481,5.487 9.315,11.491 14.42,17.913l-21.617,17.701v-11.296c0-4.418-3.582-8-8-8s-8,3.582-8,8v24.397l-15.511,12.701v-55.057c0-4.418-3.582-8-8-8s-8,3.582-8,8v68.263c-4.414,3.924-8.342,8.142-11.764,12.604v-106.097zm211.211,306.732c-16.74,13.703-45.356,13.436-62.487-0.591l-15.455-12.654c16.603,0.162 34.142-3.207 47.056-8.043 12.551,4.721 29.932,8.375 46.489,8.375 0.057,0 0.111,0 0.168,0l-15.771,12.913zm-55.732-88.777l3.169-4.24h2.097c5.67,4.125 12.512,6.366 19.583,6.366 7.071,0 13.913-2.241 19.583-6.366h2.095l3.17,4.241-24.848,22.941-24.849-22.942zm180.241-13.176l-50.988,41.751c0.36-15.432-6.802-30.827-20.859-42.021-3.456-2.753-8.489-2.183-11.241,1.274-2.753,3.456-2.182,8.489 1.274,11.242 16.07,12.796 19.43,32.382 8.341,47.916l-7.054,5.775c-0.024,0.02-0.049,0.039-0.073,0.06-13.25,10.848-45.904,7.756-66.792,0.547v-16.036l32.999-30.468c3.011-2.78 3.435-7.385 0.981-10.667l-9.887-13.228c-1.511-2.021-3.886-3.211-6.408-3.211h-8.905c-1.956,0-3.844,0.717-5.307,2.014-3.166,2.807-7.241,4.353-11.474,4.353s-8.307-1.546-11.475-4.354c-1.463-1.297-3.351-2.013-5.306-2.013h-8.908c-2.523,0-4.898,1.19-6.408,3.211l-9.885,13.227c-2.453,3.282-2.029,7.888 0.981,10.667l33,30.469v16.038c-22.47,7.754-54.767,9.119-67.318-0.98-0.093-0.079-6.538-5.352-6.538-5.352-11.436-15.695-8.513-34.6 7.418-47.285 3.457-2.752 4.027-7.785 1.275-11.241-2.753-3.458-7.787-4.029-11.242-1.274-11.199,8.918-18.285,20.885-19.951,33.696-0.319,2.455-0.439,4.922-0.364,7.383l-49.279-40.352c-17.243-14.119-26.741-32.718-26.741-52.37 0-2.066 0.382-6.648 0.398-6.901 1.905-16.415 10.596-31.611 24.949-43.364l90.927-74.453c35.547-29.107 94.011-28.596 130.328,1.142l88.101,72.139c0.026,0.022 0.054,0.044 0.08,0.066 16.963,13.906 26.415,32.147 26.692,51.462 0,0 0.006,0.818 0.006,0.875 5.68434e-14,19.028-9.001,36.88-25.347,50.263zm-219.119-68.116l-1.834,4.701c-1.233,3.16-4.255,5.094-7.455,5.094-0.967,0-1.951-0.177-2.906-0.549-4.116-1.606-6.15-6.245-4.544-10.361l1.834-4.701c1.606-4.116 6.244-6.148 10.361-4.545 4.115,1.606 6.15,6.245 4.544,10.361zm142.356-5.814l1.833,4.701c1.605,4.116-0.431,8.755-4.547,10.359-0.955,0.373-1.938,0.549-2.904,0.549-3.201,0-6.223-1.935-7.455-5.096l-1.833-4.701c-1.605-4.116 0.431-8.755 4.547-10.359 4.114-1.608 8.754,0.43 10.359,4.547zm42.872,7.072c-2.351-1.927-4.642-3.812-6.886-5.665 0.482-3.223 0.717-6.554 0.688-9.962-0.018-1.959-0.753-3.844-2.067-5.296-11.058-12.226-25.432-18.91-39.401-18.963-34.111-28.731-53.275-43.717-74.01-43.717-0.012,0-0.024,0-0.036,0-20.679,0.018-39.763,14.991-73.75,43.718-13.93,0.092-28.253,6.773-39.277,18.962-1.314,1.452-2.049,3.337-2.066,5.296-0.03,3.405 0.204,6.732 0.685,9.953-2.646,2.189-5.36,4.425-8.154,6.713-15.718,12.871-25.413,29.443-28.036,47.926-0.621,4.374 2.422,8.424 6.796,9.045 4.37,0.615 8.424-2.422 9.045-6.797 2.049-14.44 9.771-27.51 22.331-37.795 1.042-0.854 2.074-1.699 3.095-2.539 5.095,10.418 13.325,18.473 23.703,22.523 18.102,7.062 39.645,0.739 54.885-16.109 1.314-1.453 2.05-3.338 2.067-5.296 0.187-21.08-9.754-39.17-25.646-47.314 25.441-21.244 40.71-32.274 54.335-32.285 0.008,0 0.013,0 0.02,0 13.616,0 29.626,11.565 54.61,32.336-15.835,8.169-25.734,26.227-25.547,47.264 0.018,1.958 0.753,3.843 2.066,5.295 15.239,16.85 36.785,23.176 54.886,16.109 10.377-4.049 18.606-12.104 23.702-22.52 0.604,0.496 1.212,0.995 1.824,1.496 13.073,10.704 21.197,24.17 23.494,38.94 0.614,3.949 4.02,6.771 7.896,6.771 0.408,0 0.823-0.031 1.239-0.096 4.365-0.679 7.354-4.769 6.676-9.135-2.87-18.457-13.23-35.809-29.167-48.858zm-166.457,8.777c-10.49,10.227-23.979,14.044-35.067,9.72-11.087-4.327-18.425-16.275-19.214-30.905 10.491-10.23 23.982-14.047 35.069-9.723 11.085,4.328 18.423,16.276 19.212,30.908zm124.976,9.72c-11.087,4.324-24.579,0.509-35.067-9.72 0.787-14.633 8.124-26.58 19.211-30.908 11.089-4.328 24.579-0.507 35.07,9.723-0.789,14.631-8.128,26.578-19.214,30.905z"/>
</svg>
